M48
; DRILL file {KiCad 5.1.6} date Wed May 20 11:35:41 2020
; FORMAT={-:-/ absolute / inch / decimal}
; #@! TF.CreationDate,2020-05-20T11:35:41+02:00
; #@! TF.GenerationSoftware,Kicad,Pcbnew,5.1.6
; #@! TF.FileFunction,Plated,1,2,PTH
FMAT,2
INCH
T1C0.0197
T2C0.0598
T3C0.1260
%
G90
G05
T1
X3.6055Y-3.0
X3.6332Y-2.9332
X3.6332Y-3.0668
X3.7Y-2.9055
X3.7Y-3.0945
X3.7668Y-2.9332
X3.7668Y-3.0668
X3.7945Y-3.0
X8.5055Y-3.0
X8.5332Y-2.9332
X8.5332Y-3.0668
X8.6Y-2.9055
X8.6Y-3.0945
X8.6668Y-2.9332
X8.6668Y-3.0668
X8.6945Y-3.0
T2
X7.4Y-3.75
X7.6Y-3.75
X8.3Y-3.75
X8.5Y-3.75
X3.8Y-3.75
X4.0Y-3.75
X6.5Y-3.75
X6.7Y-3.75
X4.7Y-3.75
X4.9Y-3.75
X5.6Y-3.75
X5.8Y-3.75
X6.05Y-2.95
X6.25Y-2.95
T3
X3.7Y-3.0
X8.6Y-3.0
T0
M30
